<svg width="553" height="35" viewBox="0 0 553 35" fill="none" xmlns="http://www.w3.org/2000/svg">
<g clip-path="url(#clip0_529_25196)">
<path d="M370 -2L335.289 39.3664" stroke="#E9EDF5" stroke-width="5" stroke-linecap="round"/>
<path d="M384.711 -2L350 39.3664" stroke="#E9EDF5" stroke-width="5" stroke-linecap="round"/>
<path d="M399.421 -2L364.711 39.3664" stroke="#E9EDF5" stroke-width="5" stroke-linecap="round"/>
<path d="M414.132 -2L379.421 39.3664" stroke="#E9EDF5" stroke-width="5" stroke-linecap="round"/>
<path d="M428.842 -2L394.132 39.3664" stroke="#E9EDF5" stroke-width="5" stroke-linecap="round"/>
<path d="M443.553 -2L408.842 39.3664" stroke="#E9EDF5" stroke-width="5" stroke-linecap="round"/>
<path d="M458.263 -2L423.553 39.3664" stroke="#E9EDF5" stroke-width="5" stroke-linecap="round"/>
<path d="M472.974 -2L438.263 39.3664" stroke="#E9EDF5" stroke-width="5" stroke-linecap="round"/>
<path d="M487.685 -2L452.974 39.3664" stroke="#E9EDF5" stroke-width="5" stroke-linecap="round"/>
<path d="M502.395 -2L467.685 39.3664" stroke="#E9EDF5" stroke-width="5" stroke-linecap="round"/>
<path d="M517.106 -2L482.395 39.3664" stroke="#E9EDF5" stroke-width="5" stroke-linecap="round"/>
<path d="M531.816 -2L497.106 39.3664" stroke="#E9EDF5" stroke-width="5" stroke-linecap="round"/>
<path d="M546.527 -2L511.816 39.3664" stroke="#E9EDF5" stroke-width="5" stroke-linecap="round"/>
<path d="M561.237 -2L526.527 39.3664" stroke="#E9EDF5" stroke-width="5" stroke-linecap="round"/>
<path d="M575.948 -2L541.237 39.3664" stroke="#E9EDF5" stroke-width="5" stroke-linecap="round"/>
<path d="M355 -2L320.289 39.3664" stroke="#E9EDF5" stroke-width="5" stroke-linecap="round"/>
<path d="M340 -2L305.289 39.3664" stroke="#E9EDF5" stroke-width="5" stroke-linecap="round"/>
<path d="M325 -2L290.289 39.3664" stroke="#E9EDF5" stroke-width="5" stroke-linecap="round"/>
<path d="M310 -2L275.289 39.3664" stroke="#E9EDF5" stroke-width="5" stroke-linecap="round"/>
<path d="M295 -2L260.289 39.3664" stroke="#E9EDF5" stroke-width="5" stroke-linecap="round"/>
<path d="M280 -2L245.289 39.3664" stroke="#E9EDF5" stroke-width="5" stroke-linecap="round"/>
<path d="M265 -2L230.289 39.3664" stroke="#E9EDF5" stroke-width="5" stroke-linecap="round"/>
<path d="M250 -2L215.289 39.3664" stroke="#E9EDF5" stroke-width="5" stroke-linecap="round"/>
<path d="M235 -2L200.289 39.3664" stroke="#E9EDF5" stroke-width="5" stroke-linecap="round"/>
<path d="M220 -2L185.289 39.3664" stroke="#E9EDF5" stroke-width="5" stroke-linecap="round"/>
<path d="M205 -2L170.289 39.3664" stroke="#E9EDF5" stroke-width="5" stroke-linecap="round"/>
<path d="M190 -2L155.289 39.3664" stroke="#E9EDF5" stroke-width="5" stroke-linecap="round"/>
<path d="M175 -2L140.289 39.3664" stroke="#E9EDF5" stroke-width="5" stroke-linecap="round"/>
<path d="M160 -2L125.289 39.3664" stroke="#E9EDF5" stroke-width="5" stroke-linecap="round"/>
<path d="M145 -2L110.289 39.3664" stroke="#E9EDF5" stroke-width="5" stroke-linecap="round"/>
<path d="M130 -2L95.2895 39.3664" stroke="#E9EDF5" stroke-width="5" stroke-linecap="round"/>
<path d="M115 -2L80.2895 39.3664" stroke="#E9EDF5" stroke-width="5" stroke-linecap="round"/>
<path d="M100 -2L65.2895 39.3664" stroke="#E9EDF5" stroke-width="5" stroke-linecap="round"/>
<path d="M85 -2L50.2895 39.3664" stroke="#E9EDF5" stroke-width="5" stroke-linecap="round"/>
<path d="M70 -2L35.2895 39.3664" stroke="#E9EDF5" stroke-width="5" stroke-linecap="round"/>
<path d="M55 -2L20.2895 39.3664" stroke="#E9EDF5" stroke-width="5" stroke-linecap="round"/>
<path d="M40 -2L5.28947 39.3664" stroke="#E9EDF5" stroke-width="5" stroke-linecap="round"/>
<path d="M25.2988 -2L-9.4117 39.3664" stroke="#E9EDF5" stroke-width="5" stroke-linecap="round"/>
<path d="M0 5C0 2.23858 2.23858 0 5 0H63V35H5C2.23858 35 0 32.7614 0 30V5Z" fill="#00A85A"/>
<path d="M25.3402 23.1392C24.7171 23.1392 24.157 23.0199 23.6598 22.7812C23.166 22.5393 22.7715 22.2079 22.4766 21.7869C22.1816 21.366 22.0241 20.8854 22.0043 20.3452H23.4957C23.5322 20.7827 23.7261 21.1423 24.0774 21.424C24.4287 21.7057 24.8497 21.8466 25.3402 21.8466C25.7313 21.8466 26.0777 21.7571 26.3793 21.5781C26.6842 21.3958 26.9228 21.1456 27.0952 20.8274C27.2708 20.5092 27.3587 20.1463 27.3587 19.7386C27.3587 19.3243 27.2692 18.9548 27.0902 18.63C26.9112 18.3052 26.6643 18.05 26.3494 17.8643C26.0379 17.6787 25.6799 17.5843 25.2756 17.581C24.9673 17.581 24.6574 17.634 24.3459 17.7401C24.0343 17.8461 23.7824 17.9853 23.5902 18.1577L22.1832 17.9489L22.755 12.8182H28.353V14.1357H24.0327L23.7095 16.9844H23.7692C23.968 16.7921 24.2315 16.6314 24.5597 16.5021C24.8911 16.3729 25.2457 16.3082 25.6236 16.3082C26.2434 16.3082 26.7952 16.4557 27.2791 16.7507C27.7663 17.0457 28.1491 17.4484 28.4276 17.9588C28.7093 18.4659 28.8485 19.0492 28.8452 19.7088C28.8485 20.3684 28.6993 20.9567 28.3977 21.4737C28.0994 21.9908 27.6851 22.3984 27.1548 22.6967C26.6278 22.9917 26.023 23.1392 25.3402 23.1392ZM35.9757 21.0909V20.554C35.9757 20.1695 36.0552 19.8182 36.2143 19.5C36.3767 19.1785 36.612 18.9216 36.9203 18.7294C37.2318 18.5339 37.608 18.4361 38.0488 18.4361C38.4996 18.4361 38.8774 18.5322 39.1824 18.7244C39.4873 18.9167 39.7176 19.1735 39.8734 19.495C40.0325 19.8165 40.112 20.1695 40.112 20.554V21.0909C40.112 21.4754 40.0325 21.8284 39.8734 22.1499C39.7143 22.468 39.4806 22.7249 39.1724 22.9205C38.8675 23.1127 38.493 23.2088 38.0488 23.2088C37.6014 23.2088 37.2235 23.1127 36.9153 22.9205C36.6071 22.7249 36.3734 22.468 36.2143 22.1499C36.0552 21.8284 35.9757 21.4754 35.9757 21.0909ZM37.1341 20.554V21.0909C37.1341 21.3759 37.202 21.6345 37.3379 21.8665C37.4738 22.0985 37.7108 22.2145 38.0488 22.2145C38.3836 22.2145 38.6172 22.0985 38.7498 21.8665C38.8824 21.6345 38.9487 21.3759 38.9487 21.0909V20.554C38.9487 20.2689 38.8841 20.0104 38.7548 19.7784C38.6288 19.5464 38.3935 19.4304 38.0488 19.4304C37.7174 19.4304 37.4821 19.5464 37.3429 19.7784C37.2037 20.0104 37.1341 20.2689 37.1341 20.554ZM30.8549 15.2642V14.7273C30.8549 14.3428 30.9345 13.9898 31.0936 13.6683C31.256 13.3468 31.4913 13.09 31.7995 12.8977C32.1111 12.7055 32.4873 12.6094 32.9281 12.6094C33.3788 12.6094 33.7567 12.7055 34.0616 12.8977C34.3665 13.09 34.5969 13.3468 34.7527 13.6683C34.9084 13.9898 34.9863 14.3428 34.9863 14.7273V15.2642C34.9863 15.6487 34.9068 16.0017 34.7477 16.3232C34.5919 16.6413 34.3599 16.8982 34.0517 17.0938C33.7467 17.286 33.3722 17.3821 32.9281 17.3821C32.4773 17.3821 32.0978 17.286 31.7896 17.0938C31.4847 16.8982 31.2527 16.6413 31.0936 16.3232C30.9345 16.0017 30.8549 15.6487 30.8549 15.2642ZM32.0183 14.7273V15.2642C32.0183 15.5492 32.0846 15.8078 32.2172 16.0398C32.353 16.2718 32.59 16.3878 32.9281 16.3878C33.2595 16.3878 33.4915 16.2718 33.6241 16.0398C33.76 15.8078 33.8279 15.5492 33.8279 15.2642V14.7273C33.8279 14.4422 33.7633 14.1837 33.6341 13.9517C33.5048 13.7197 33.2695 13.6037 32.9281 13.6037C32.5967 13.6037 32.3613 13.7197 32.2221 13.9517C32.0862 14.1837 32.0183 14.4422 32.0183 14.7273ZM31.3272 23L38.3272 12.8182H39.5154L32.5154 23H31.3272Z" fill="white"/>
</g>
<defs>
<clipPath id="clip0_529_25196">
<rect width="553" height="35" rx="5" fill="white"/>
</clipPath>
</defs>
</svg>
